<mxfile host="Electron" modified="2024-04-13T23:38:28.104Z" agent="Mozilla/5.0 (Windows NT 10.0; Win64; x64) AppleWebKit/537.36 (KHTML, like Gecko) draw.io/24.2.5 Chrome/120.0.6099.109 Electron/28.1.0 Safari/537.36" etag="P3LSkge3khsveSktQRFe" version="24.2.5" type="device">
  <diagram name="PÃ¡gina-1" id="EtnavGJa80yb3m-YHCb7">
    <mxGraphModel dx="1050" dy="621" grid="1" gridSize="10" guides="1" tooltips="1" connect="1" arrows="1" fold="1" page="1" pageScale="1" pageWidth="827" pageHeight="1169" math="0" shadow="0">
      <root>
        <mxCell id="0" />
        <mxCell id="1" parent="0" />
        <mxCell id="usqIkJ87GHKA2CY-LdW_-3" value="" style="whiteSpace=wrap;html=1;aspect=fixed;" vertex="1" parent="1">
          <mxGeometry x="270" y="180" width="340" height="340" as="geometry" />
        </mxCell>
        <mxCell id="usqIkJ87GHKA2CY-LdW_-4" value="&lt;b&gt;To-Do-List&lt;/b&gt;" style="rounded=0;whiteSpace=wrap;html=1;" vertex="1" parent="1">
          <mxGeometry x="270" y="180" width="340" height="50" as="geometry" />
        </mxCell>
        <mxCell id="usqIkJ87GHKA2CY-LdW_-5" value="&lt;b&gt;Tarefa&lt;/b&gt;" style="rounded=0;whiteSpace=wrap;html=1;" vertex="1" parent="1">
          <mxGeometry x="270" y="310" width="130" height="40" as="geometry" />
        </mxCell>
        <mxCell id="usqIkJ87GHKA2CY-LdW_-6" value="&lt;b&gt;Editar&lt;/b&gt;" style="rounded=0;whiteSpace=wrap;html=1;" vertex="1" parent="1">
          <mxGeometry x="400" y="310" width="60" height="40" as="geometry" />
        </mxCell>
        <mxCell id="usqIkJ87GHKA2CY-LdW_-7" value="&lt;b&gt;Apagar todas as tarefas completas&lt;/b&gt;" style="rounded=0;whiteSpace=wrap;html=1;" vertex="1" parent="1">
          <mxGeometry x="270" y="230" width="340" height="40" as="geometry" />
        </mxCell>
        <mxCell id="usqIkJ87GHKA2CY-LdW_-8" value="&lt;b&gt;Adicionar tarefa&lt;/b&gt;" style="rounded=0;whiteSpace=wrap;html=1;" vertex="1" parent="1">
          <mxGeometry x="270" y="270" width="340" height="40" as="geometry" />
        </mxCell>
        <mxCell id="usqIkJ87GHKA2CY-LdW_-9" value="&lt;b&gt;Concluir&lt;/b&gt;" style="rounded=0;whiteSpace=wrap;html=1;" vertex="1" parent="1">
          <mxGeometry x="520" y="310" width="90" height="40" as="geometry" />
        </mxCell>
        <mxCell id="usqIkJ87GHKA2CY-LdW_-11" value="&lt;b&gt;Deletar&lt;/b&gt;" style="rounded=0;whiteSpace=wrap;html=1;" vertex="1" parent="1">
          <mxGeometry x="460" y="310" width="60" height="40" as="geometry" />
        </mxCell>
        <mxCell id="usqIkJ87GHKA2CY-LdW_-12" value="&lt;b&gt;Tarefa&lt;/b&gt;" style="rounded=0;whiteSpace=wrap;html=1;" vertex="1" parent="1">
          <mxGeometry x="270" y="350" width="130" height="40" as="geometry" />
        </mxCell>
        <mxCell id="usqIkJ87GHKA2CY-LdW_-13" value="&lt;b&gt;Editar&lt;/b&gt;" style="rounded=0;whiteSpace=wrap;html=1;" vertex="1" parent="1">
          <mxGeometry x="400" y="350" width="60" height="40" as="geometry" />
        </mxCell>
        <mxCell id="usqIkJ87GHKA2CY-LdW_-14" value="&lt;b&gt;Deletar&lt;/b&gt;" style="rounded=0;whiteSpace=wrap;html=1;" vertex="1" parent="1">
          <mxGeometry x="460" y="350" width="60" height="40" as="geometry" />
        </mxCell>
        <mxCell id="usqIkJ87GHKA2CY-LdW_-15" value="&lt;b&gt;Concluir&lt;/b&gt;" style="rounded=0;whiteSpace=wrap;html=1;" vertex="1" parent="1">
          <mxGeometry x="520" y="350" width="90" height="40" as="geometry" />
        </mxCell>
      </root>
    </mxGraphModel>
  </diagram>
</mxfile>
